<svg version="1.1" xmlns="http://www.w3.org/2000/svg" xmlns:xlink="http://www.w3.org/1999/xlink" width="48" height="48"><defs><linearGradient x1="16.67127" y1="14.22989" x2="52.54193" y2="54.98331" gradientUnits="userSpaceOnUse" id="color-1"><stop offset="0" stop-color="#000000" stop-opacity="0.3"></stop><stop offset="1" stop-color="#000000" stop-opacity="0"></stop></linearGradient><filter id="dropshadow-base"><feColorMatrix type="matrix" values="0 0 0 0 0  0 0 0 0 0  0 0 0 0 0  0 0 0 .8 0"></feColorMatrix> <feOffset dx="0" dy="1"></feOffset> <feGaussianBlur stdDeviation="1"></feGaussianBlur> <feComposite in="SourceGraphic"></feComposite></filter><filter id="dropshadow-banner" x="-10%" y="-10%" width="120%" height="130%"><feColorMatrix type="matrix" values="0 0 0 0 0  0 0 0 0 0  0 0 0 0 0  0 0 0 .4 0"></feColorMatrix> <feOffset dx="0" dy="1"></feOffset> <feGaussianBlur stdDeviation="0.5"></feGaussianBlur> <feComposite in="SourceGraphic"></feComposite></filter></defs><g fill="none" fill-rule="nonzero" stroke="none" stroke-width="none" stroke-linecap="butt" stroke-linejoin="miter" stroke-miterlimit="10" stroke-dasharray="" stroke-dashoffset="0" font-family="none" font-weight="none" font-size="none" text-anchor="none" style="mix-blend-mode: normal"><path d="M2,24c0,-12.15026 9.84974,-22 22,-22c12.15026,0 22,9.84974 22,22c0,12.15026 -9.84974,22 -22,22c-12.15026,0 -22,-9.84974 -22,-22z" id="base 1 5" fill="#f44336" stroke-width="1"></path><path d="M16.67127,26.44138c0,-3.10097 1.11305,-5.94085 2.95439,-8.14405l3.72445,3.72445c1.64895,-0.2123 2.70193,-1.65333 2.70193,-3.39466c0,-1.9696 -0.67791,-4.39723 -0.67791,-4.39723c0.46397,0.37129 0.90775,0.76855 1.32878,1.18958l17.44028,17.44028c-2.37112,5.38309 -6.83682,9.63575 -12.36476,11.72563l-12.96122,-12.96122c-1.32604,-1.32604 -2.14594,-3.15822 -2.14594,-5.18278z" fill="url(#color-1)" stroke-width="1"></path><path d="M25.37414,14.22989c0,0 0.67791,2.42764 0.67791,4.39724c0,1.88715 -1.23672,3.4216 -3.12845,3.4216c-1.89173,0 -3.32083,-1.52987 -3.32083,-3.4216l0.0229,-0.32979c-1.84134,2.2032 -2.95439,5.04308 -2.95439,8.14405c0,4.04912 3.27961,7.32873 7.32873,7.32873c4.04912,0 7.32873,-3.27961 7.32873,-7.32873c0,-4.94231 -2.37726,-9.34871 -5.95459,-12.21149zM23.73433,31.02184c-1.63064,0 -2.95439,-1.28711 -2.95439,-2.87653c0,-1.48865 0.95731,-2.53299 2.5788,-2.8582c1.62148,-0.32521 3.29793,-1.10389 4.22776,-2.35893c0.35728,1.18176 0.54507,2.42764 0.54507,3.69643c0,2.42306 -1.9696,4.39724 -4.39724,4.39724z" fill="none" stroke-width="0"></path><path d="M31.32873,26.44138c0,4.04912 -3.27961,7.32873 -7.32873,7.32873c-4.04912,0 -7.32873,-3.27961 -7.32873,-7.32873c0,-3.10097 1.11305,-5.94085 2.95439,-8.14405l-0.0229,0.32979c0,1.89173 1.4291,3.4216 3.32083,3.4216c1.89173,0 3.12845,-1.53445 3.12845,-3.4216c0,-1.9696 -0.67791,-4.39724 -0.67791,-4.39724c3.57733,2.86278 5.95459,7.26918 5.95459,12.21149zM28.13157,26.6246c0,-1.26879 -0.1878,-2.51467 -0.54507,-3.69643c-0.92983,1.25504 -2.60628,2.03372 -4.22776,2.35893c-1.62148,0.32521 -2.5788,1.36956 -2.5788,2.8582c0,1.58942 1.32375,2.87653 2.95439,2.87653c2.42764,0 4.39724,-1.97418 4.39724,-4.39724z" fill="#ffffff" stroke-width="0"></path><path d="M2,24c0,-12.15026 9.84974,-22 22,-22c12.15026,0 22,9.84974 22,22c0,12.15026 -9.84974,22 -22,22c-12.15026,0 -22,-9.84974 -22,-22z" id="base 1 1 1" fill="none" stroke-width="1"></path><g fill="#000000" stroke-width="1" font-family="Roboto, sans-serif" font-weight="400" font-size="14" text-anchor="start"></g><rect x="2" y="2" width="44" height="22" fill="none" stroke-width="1"></rect><path d="M2,24v-22h44v22z" fill="none" stroke-width="1"></path><path d="M2,24v-22h44v22z" fill="none" stroke-width="1"></path><path d="M2,24v-22h44v22z" fill="none" stroke-width="1"></path><path d="M2,24v-22h44v22z" fill="none" stroke-width="1"></path></g></svg>