<svg version="1.1" xmlns="http://www.w3.org/2000/svg" xmlns:xlink="http://www.w3.org/1999/xlink" width="48" height="48"><defs><linearGradient x1="14.22989" y1="14.70952" x2="54.98331" y2="54.50369" gradientUnits="userSpaceOnUse" id="color-1"><stop offset="0" stop-color="#000000" stop-opacity="0.3"></stop><stop offset="1" stop-color="#000000" stop-opacity="0"></stop></linearGradient><filter id="dropshadow-base"><feColorMatrix type="matrix" values="0 0 0 0 0  0 0 0 0 0  0 0 0 0 0  0 0 0 .8 0"></feColorMatrix> <feOffset dx="0" dy="1"></feOffset> <feGaussianBlur stdDeviation="1"></feGaussianBlur> <feComposite in="SourceGraphic"></feComposite></filter><filter id="dropshadow-banner" x="-10%" y="-10%" width="120%" height="130%"><feColorMatrix type="matrix" values="0 0 0 0 0  0 0 0 0 0  0 0 0 0 0  0 0 0 .4 0"></feColorMatrix> <feOffset dx="0" dy="1"></feOffset> <feGaussianBlur stdDeviation="0.5"></feGaussianBlur> <feComposite in="SourceGraphic"></feComposite></filter></defs><g fill="none" fill-rule="nonzero" stroke="none" stroke-width="none" stroke-linecap="butt" stroke-linejoin="miter" stroke-miterlimit="10" stroke-dasharray="" stroke-dashoffset="0" font-family="none" font-weight="none" font-size="none" text-anchor="none" style="mix-blend-mode: normal"><path d="M2,24c0,-12.15026 9.84974,-22 22,-22c12.15026,0 22,9.84974 22,22c0,12.15026 -9.84974,22 -22,22c-12.15026,0 -22,-9.84974 -22,-22z" id="base 1 9" fill="#f44336" stroke-width="1"></path><path d="M31.90491,18.25784l12.9033,12.9033c-2.19856,6.38968 -7.25738,11.4485 -13.64706,13.64706l-15.06605,-15.06605l0.30198,-3.27299l-2.16719,-2.46917l2.16719,-2.46917l-0.30198,-3.27299l3.20637,-0.72388l1.67868,-2.82445l3.01985,1.29676l3.01985,-1.29676l3.15855,3.15855z" fill="url(#color-1)" stroke-width="1"></path><path d="M33.77011,24l-2.16719,-2.46917l0.30199,-3.27299l-3.20637,-0.72388l-1.67868,-2.82445l-3.01985,1.29676l-3.01985,-1.29676l-1.67868,2.82445l-3.20637,0.72388l0.30199,3.27299l-2.16719,2.46917l2.16719,2.46917l-0.30199,3.27299l3.20637,0.72388l1.67868,2.82445l3.01985,-1.29676l3.01985,1.29676l1.67868,-2.82445l3.20637,-0.72388l-0.30199,-3.27299zM24.88819,28.44096h-1.77638v-1.77638h1.77638zM24.88819,24.88819h-1.77638v-5.32915h1.77638z" fill="none" stroke-width="0"></path><path d="M31.60292,26.46917l0.30199,3.27299l-3.20637,0.72388l-1.67868,2.82445l-3.01985,-1.29676l-3.01985,1.29676l-1.67868,-2.82445l-3.20637,-0.72388l0.30199,-3.27299l-2.16719,-2.46917l2.16719,-2.46917l-0.30199,-3.27299l3.20637,-0.72388l1.67868,-2.82445l3.01985,1.29676l3.01985,-1.29676l1.67868,2.82445l3.20637,0.72388l-0.30199,3.27299l2.16719,2.46917zM24.88819,26.66458h-1.77638v1.77638h1.77638zM24.88819,19.55904h-1.77638v5.32915h1.77638z" fill="#ffffff" stroke-width="0"></path><path d="M2,24c0,-12.15026 9.84974,-22 22,-22c12.15026,0 22,9.84974 22,22c0,12.15026 -9.84974,22 -22,22c-12.15026,0 -22,-9.84974 -22,-22z" id="base 1 5 1" fill="none" stroke-width="1"></path><path d="M2,24c0,-12.15026 9.84974,-22 22,-22c12.15026,0 22,9.84974 22,22c0,12.15026 -9.84974,22 -22,22c-12.15026,0 -22,-9.84974 -22,-22z" id="base 1 1 1" fill="none" stroke-width="1"></path><g fill="#000000" stroke-width="1" font-family="Roboto, sans-serif" font-weight="400" font-size="14" text-anchor="start"></g><rect x="2" y="2" width="44" height="22" fill="none" stroke-width="1"></rect><path d="M2,24v-22h44v22z" fill="none" stroke-width="1"></path><path d="M2,24v-22h44v22z" fill="none" stroke-width="1"></path><path d="M2,24v-22h44v22z" fill="none" stroke-width="1"></path><path d="M2,24v-22h44v22z" fill="none" stroke-width="1"></path><g fill="#000000" stroke-width="1" font-family="Roboto, sans-serif" font-weight="400" font-size="14" text-anchor="start"></g><rect x="2" y="2" width="44" height="22" fill="none" stroke-width="1"></rect><path d="M2,24v-22h44v22z" fill="none" stroke-width="1"></path><path d="M2,24v-22h44v22z" fill="none" stroke-width="1"></path><path d="M2,24v-22h44v22z" fill="none" stroke-width="1"></path><path d="M2,24v-22h44v22z" fill="none" stroke-width="1"></path></g></svg>